<svg width="70" height="70" viewBox="0 0 70 70" fill="none" xmlns="http://www.w3.org/2000/svg">
<path d="M69.8221 20.5802C69.6581 16.8608 69.0565 14.3038 68.1947 12.0881C67.3057 9.73617 65.938 7.6305 64.146 5.88005C62.3953 4.10236 60.2753 2.72102 57.9502 1.84606C55.7212 0.98446 53.177 0.382994 49.457 0.219006C45.7091 0.0411304 44.5193 0 35.0136 0C25.508 0 24.3182 0.0411304 20.5842 0.205118C16.8641 0.369106 14.3066 0.971106 12.091 1.83218C9.73806 2.72102 7.63198 4.08848 5.88119 5.88005C4.10316 7.6305 2.72208 9.75006 1.84642 12.0747C0.984651 14.3038 0.383068 16.8469 0.219049 20.5663C0.0411384 24.3134 0 25.503 0 35.0068C0 44.5106 0.0411384 45.7002 0.205158 49.4335C0.369177 53.1529 0.971295 55.7099 1.83306 57.9256C2.72208 60.2775 4.10316 62.3832 5.88119 64.1336C7.63198 65.9113 9.75195 67.2926 12.0771 68.1676C14.3066 69.0292 16.8502 69.6307 20.5708 69.7947C24.3043 69.9592 25.4946 69.9998 35.0003 69.9998C44.5059 69.9998 45.6957 69.9592 49.4297 69.7947C53.1498 69.6307 55.7073 69.0292 57.9229 68.1676C62.6282 66.3488 66.3483 62.6294 68.1675 57.9256C69.0287 55.6965 69.6308 53.1529 69.7948 49.4335C69.9589 45.7002 70 44.5106 70 35.0068C70 25.503 69.9861 24.3134 69.8221 20.5802ZM63.5172 49.16C63.3666 52.5786 62.7922 54.4247 62.3135 55.6554C61.1371 58.7049 58.7163 61.1252 55.6662 62.3014C54.4352 62.7801 52.5755 63.3543 49.1695 63.5044C45.4767 63.6689 44.3691 63.7095 35.0275 63.7095C25.6859 63.7095 24.5645 63.6689 20.885 63.5044C17.4657 63.3543 15.6193 62.7801 14.3883 62.3014C12.8705 61.7406 11.4888 60.8517 10.3674 59.6894C9.20486 58.5543 8.31584 57.1868 7.75486 55.6693C7.27616 54.4386 6.70183 52.5786 6.5517 49.1739C6.38714 45.4818 6.34654 44.3739 6.34654 35.0341C6.34654 25.6943 6.38714 24.5731 6.5517 20.8948C6.70183 17.4762 7.27616 15.6301 7.75486 14.3994C8.31584 12.8813 9.20486 11.5005 10.3813 10.3788C11.5161 9.21643 12.8838 8.32758 14.4022 7.76725C15.6331 7.28864 17.4935 6.71442 20.8989 6.56378C24.5917 6.39979 25.6998 6.35866 35.0409 6.35866C44.3964 6.35866 45.5039 6.39979 49.1834 6.56378C52.6027 6.71442 54.4491 7.28864 55.6801 7.76725C57.1979 8.32758 58.5795 9.21643 59.701 10.3788C60.8635 11.5139 61.7525 12.8813 62.3135 14.3994C62.7922 15.6301 63.3666 17.4895 63.5172 20.8948C63.6812 24.5869 63.7224 25.6943 63.7224 35.0341C63.7224 44.3739 63.6812 45.4679 63.5172 49.16Z" fill="white"/>
<path d="M35.0138 17.0249C25.0845 17.0249 17.0283 25.079 17.0283 35.0069C17.0283 44.9349 25.0845 52.989 35.0138 52.989C44.9437 52.989 52.9993 44.9349 52.9993 35.0069C52.9993 25.079 44.9437 17.0249 35.0138 17.0249ZM35.0138 46.6714C28.5722 46.6714 23.3471 41.4479 23.3471 35.0069C23.3471 28.566 28.5722 23.3424 35.0138 23.3424C41.456 23.3424 46.6806 28.566 46.6806 35.0069C46.6806 41.4479 41.456 46.6714 35.0138 46.6714Z" fill="white"/>
<path d="M57.9093 16.3137C57.9093 18.632 56.0293 20.5117 53.71 20.5117C51.3913 20.5117 49.5112 18.632 49.5112 16.3137C49.5112 13.9949 51.3913 12.1157 53.71 12.1157C56.0293 12.1157 57.9093 13.9949 57.9093 16.3137Z" fill="white"/>
</svg>
