<svg width="70" height="70" viewBox="0 0 70 70" fill="none" xmlns="http://www.w3.org/2000/svg">
<path d="M0 35C0 54.33 15.67 70 35 70C54.33 70 70 54.33 70 35C70 15.67 54.33 0 35 0C15.67 0 0 15.67 0 35Z" fill="white"/>
<path d="M12.0026 51.9829C16.1672 54.5275 21.1073 56 26.4029 56C41.2802 56 53.3401 44.3804 53.3401 30.0492C53.3401 29.6914 53.3323 29.3362 53.318 28.9821C53.8562 28.5742 57.1842 26.0043 58 24.3523C58 24.3523 55.2973 25.4343 52.6522 25.6893C52.647 25.6893 52.6406 25.6904 52.6353 25.6904C52.6353 25.6904 52.6406 25.6879 52.6496 25.6817C52.8933 25.5248 56.3008 23.2902 56.7622 20.6277C56.7622 20.6277 54.8505 21.6106 52.174 22.4706C51.7309 22.6124 51.2671 22.7518 50.7888 22.8811C49.0635 21.1072 46.6112 20 43.889 20C38.6676 20 34.4366 24.0749 34.4366 29.1013C34.4366 29.8106 34.5213 30.501 34.6815 31.1638C33.9519 31.135 22.8404 30.5348 15.2813 21.7159C15.2813 21.7159 10.7635 27.6576 17.9735 33.7674C17.9735 33.7674 15.7818 33.6832 13.8909 32.5948C13.8909 32.5948 13.1964 39.793 21.3614 41.6334C21.3614 41.6334 19.7548 42.2197 17.1916 41.8017C17.1916 41.8017 18.625 47.6178 25.8793 48.1613C25.8793 48.1613 20.143 53.1536 12 51.9822L12.0026 51.9829Z" fill="black"/>
</svg>
